<svg version="1.1" id="Layer_1" xmlns="http://www.w3.org/2000/svg" xmlns:xlink="http://www.w3.org/1999/xlink" x="0px" y="0px"
	 width="100%" viewBox="0 0 162 144" enable-background="new 0 0 162 144" xml:space="preserve">
<path fill="#6C6C6C" opacity="1.000000" stroke="none" 
	d="
M99.000000,145.000000 
	C66.000008,145.000000 33.500008,145.000000 1.000009,145.000000 
	C1.000006,97.000008 1.000006,49.000019 1.000003,1.000022 
	C54.999985,1.000014 108.999969,1.000014 162.999969,1.000007 
	C162.999969,48.999981 162.999969,96.999962 162.999985,144.999969 
	C141.833328,145.000000 120.666664,145.000000 99.000000,145.000000 
M98.861404,54.991600 
	C98.692078,45.693310 99.026436,45.369045 108.026299,45.996300 
	C108.325325,46.017143 108.640648,45.804352 109.363182,45.622158 
	C109.712143,44.668266 110.061111,43.714371 110.410072,42.760479 
	C109.280151,42.526882 108.150223,42.293285 106.248627,41.963215 
	C104.503098,42.320343 102.757576,42.677471 100.751854,42.365269 
	C101.528870,39.834080 102.305893,37.302887 103.826172,34.883808 
	C107.249649,36.165298 110.647369,37.522038 114.104378,38.705605 
	C117.127899,39.740757 118.763603,41.541737 118.475029,44.911201 
	C118.305298,46.893055 118.624741,48.922798 118.393501,50.892174 
	C117.874115,55.315681 119.776642,58.088539 124.352287,59.902805 
	C124.352287,53.169369 124.212669,46.725563 124.414818,40.292496 
	C124.507370,37.347126 123.569962,35.844337 120.719727,34.845573 
	C112.725548,32.044300 104.576927,29.477741 96.974113,25.812738 
	C84.829773,19.958460 73.104599,18.820251 61.070679,25.777605 
	C58.664051,27.168987 55.763470,27.682440 53.144402,28.734514 
	C46.387939,31.448572 39.661564,34.237511 32.221714,37.094456 
	C28.875309,39.947525 25.471046,42.737915 22.242199,45.718338 
	C21.732714,46.188625 21.703205,47.627430 21.984339,48.432438 
	C23.722271,53.408863 25.696827,58.302742 27.429413,63.280907 
	C29.273026,68.578079 26.704264,72.030167 21.044285,71.947868 
	C18.791285,71.915108 16.542006,71.626381 13.327880,71.380501 
	C15.143931,77.740952 16.639837,83.411819 18.498447,88.961205 
	C18.739668,89.681435 20.831453,89.877831 22.102888,90.134071 
	C23.908497,90.497948 25.783195,90.550316 27.566111,90.988892 
	C31.156857,91.872169 34.705582,92.926292 38.740219,94.396866 
	C44.676163,107.216278 54.326004,116.799889 65.972458,124.269211 
	C81.491928,134.222443 76.040291,134.165100 91.246666,124.423927 
	C104.852379,115.708130 115.749168,104.453812 121.048553,88.691673 
	C121.590858,87.078690 121.806984,85.356041 122.174461,83.684280 
	C121.747520,83.428993 121.320572,83.173706 120.893631,82.918419 
	C110.449059,92.578430 106.848587,108.571007 91.796684,115.564148 
	C92.303833,113.088829 92.630638,111.493729 93.676270,109.741623 
	C93.710693,107.915947 93.745117,106.090271 93.779549,104.264595 
	C92.407135,104.426582 91.034714,104.588562 89.662300,104.750549 
	C90.070930,106.551399 90.479568,108.352242 90.956367,110.999863 
	C90.712975,114.355186 92.415871,118.616989 86.337685,119.796669 
	C86.337685,114.604149 86.337685,109.646751 86.337685,104.689362 
	C86.337685,99.822754 86.337685,94.956139 86.337685,90.089531 
	C85.729965,90.107529 85.122246,90.125534 84.514519,90.143532 
	C84.405159,91.887154 84.210411,93.630325 84.201126,95.374481 
	C84.159485,103.192528 84.098061,111.011795 84.200279,118.828583 
	C84.238441,121.746536 83.415787,123.642944 79.700211,123.951408 
	C79.700211,122.217537 79.674774,120.597748 79.704628,118.978973 
	C79.830276,112.166222 80.025856,105.353912 80.041740,98.541084 
	C80.043747,97.678429 79.213654,96.749390 78.594345,95.994461 
	C78.436928,95.802567 77.310501,95.998596 77.147301,96.298393 
	C76.734978,97.055748 76.362534,97.991402 76.420990,98.824265 
	C77.007362,107.178566 77.683937,115.526543 78.335106,123.876297 
	C77.444969,124.097435 76.554832,124.318573 75.664688,124.539719 
	C74.866295,122.622856 73.442711,120.726852 73.377953,118.785522 
	C73.100769,110.476738 73.315376,102.152283 73.104897,93.839767 
	C73.072685,92.567574 71.752037,91.328011 70.561790,89.616959 
	C69.707764,88.401878 68.853737,87.186790 68.793991,86.004776 
	C84.732216,89.890450 103.382103,82.755463 110.383904,69.540993 
	C106.302864,66.187553 102.096718,62.731297 98.065063,58.577751 
	C98.364014,57.666981 98.662956,56.756210 98.861404,54.991600 
M100.796417,99.613754 
	C101.201866,100.826485 101.607323,102.039215 102.012772,103.251945 
	C102.537048,103.073044 103.061325,102.894135 103.585594,102.715225 
	C103.250671,101.685989 102.915741,100.656746 103.266731,99.343536 
	C104.196312,98.161705 105.938347,96.896553 105.828094,95.821350 
	C105.716728,94.735367 103.867073,93.175201 102.606636,92.988976 
	C99.541435,92.536110 98.831024,90.851524 98.844223,88.191902 
	C98.849419,87.146706 98.427322,86.099380 98.199806,85.053017 
	C95.903641,90.548401 98.249115,94.850502 100.796417,99.613754 
M106.018059,56.238888 
	C107.045685,57.821899 107.803154,59.701653 109.153084,60.930656 
	C112.778564,64.231392 116.657356,67.253883 120.222771,70.210403 
	C116.463013,77.354912 104.905510,78.226059 107.013283,89.011856 
	C114.334564,83.984833 121.155235,78.527191 127.730469,72.788353 
	C128.469269,72.143532 128.459061,69.174469 127.713722,68.524460 
	C121.039162,62.703560 114.121788,57.161079 106.558228,50.947155 
	C106.276909,53.265522 106.145050,54.352177 106.018059,56.238888 
M91.384888,97.853409 
	C93.416222,99.750183 95.447563,101.646950 97.948692,103.982399 
	C95.496162,98.214203 93.423691,93.339867 91.017036,87.679573 
	C91.017036,91.104126 91.017036,94.143692 91.384888,97.853409 
z"/>
<path fill="#6F6F6F" opacity="1.000000" stroke="none" 
	d="
M38.271641,93.909927 
	C34.705582,92.926292 31.156857,91.872169 27.566111,90.988892 
	C25.783195,90.550316 23.908497,90.497948 22.102888,90.134071 
	C20.831453,89.877831 18.739668,89.681435 18.498447,88.961205 
	C16.639837,83.411819 15.143931,77.740952 13.327880,71.380501 
	C16.542006,71.626381 18.791285,71.915108 21.044285,71.947868 
	C26.704264,72.030167 29.273026,68.578079 27.429413,63.280907 
	C25.696827,58.302742 23.722271,53.408863 21.984339,48.432438 
	C21.703205,47.627430 21.732714,46.188625 22.242199,45.718338 
	C25.471046,42.737915 28.875309,39.947525 32.617249,37.512493 
	C32.993965,45.337143 32.975151,52.743759 33.014179,60.514282 
	C33.433079,62.049599 33.794140,63.221012 33.972660,64.669266 
	C27.132389,70.544174 27.133913,70.542480 33.438061,76.214180 
	C33.672867,76.425430 33.819946,76.734184 33.700935,77.109192 
	C33.028721,78.492851 32.663483,79.764809 32.298244,81.036774 
	C33.575195,80.242485 34.852146,79.448196 36.456482,78.770210 
	C41.212910,82.415611 45.641953,85.944717 50.070999,89.473816 
	C50.605953,89.176392 51.140907,88.878967 51.675865,88.581543 
	C51.048084,86.084671 50.420307,83.587807 50.055038,80.901398 
	C51.201324,79.510490 52.085098,78.309135 53.270741,77.205841 
	C54.504299,78.153877 55.435993,79.003845 56.042809,80.001656 
	C54.797081,81.488663 53.876232,82.827827 52.955383,84.166985 
	C53.381565,84.510803 53.807747,84.854614 54.233925,85.198433 
	C55.754616,83.940048 57.275303,82.681664 59.051323,81.541275 
	C60.264297,82.242958 61.221939,82.826653 62.050938,83.764801 
	C61.686527,87.418114 61.450760,90.716972 61.214993,94.015823 
	C61.865887,94.076508 62.516781,94.137184 63.167675,94.197868 
	C63.791691,91.094749 64.415703,87.991638 65.362045,84.900375 
	C66.456154,85.265396 67.227928,85.618553 67.999710,85.971710 
	C68.853737,87.186790 69.707764,88.401878 70.827782,90.168579 
	C71.036835,91.147545 70.979897,91.574875 70.630066,92.058571 
	C69.702705,93.709900 69.422928,95.607239 68.368484,96.844223 
	C64.945358,100.859947 67.060036,102.227844 71.036263,103.460403 
	C71.118309,109.255615 71.118309,114.589020 71.118309,120.304535 
	C62.313663,117.088608 68.206276,109.472328 64.758095,103.771240 
	C64.011948,105.789345 63.617798,106.855400 62.847343,107.958893 
	C61.305126,109.026901 60.139214,110.057465 58.664612,110.963470 
	C56.567924,108.893616 54.779926,106.948326 53.303707,104.850517 
	C55.159252,103.422241 56.703014,102.146477 58.246780,100.870720 
	C57.270592,100.212708 56.294399,99.554695 55.334480,98.616211 
	C54.234840,98.134041 53.118923,97.932343 51.979034,98.127182 
	C51.508850,99.735725 51.062641,100.947716 50.361515,101.960312 
	C48.898399,99.749512 47.690201,97.738113 46.801033,95.498047 
	C47.941677,94.086678 48.763290,92.903976 49.584904,91.721268 
	C49.120872,91.489174 48.656841,91.257080 48.192810,91.024986 
	C47.603561,92.577690 47.014317,94.130386 46.167213,95.445641 
	C43.523804,90.274475 41.385178,85.116196 34.778214,83.180695 
	C36.046066,87.074600 37.158852,90.492264 38.271641,93.909927 
M55.521683,93.493774 
	C55.521683,93.493774 55.486649,93.504814 55.521683,93.493774 
z"/>
<path fill="#F4F4F4" opacity="1.000000" stroke="none" 
	d="
M70.922951,92.002213 
	C70.979897,91.574875 71.036835,91.147545 71.060532,90.396782 
	C71.752037,91.328011 73.072685,92.567574 73.104897,93.839767 
	C73.315376,102.152283 73.100769,110.476738 73.377953,118.785522 
	C73.442711,120.726852 74.866295,122.622856 75.664688,124.539719 
	C76.554832,124.318573 77.444969,124.097435 78.335106,123.876297 
	C77.683937,115.526543 77.007362,107.178566 76.420990,98.824265 
	C76.362534,97.991402 76.734978,97.055748 77.147301,96.298393 
	C77.310501,95.998596 78.436928,95.802567 78.594345,95.994461 
	C79.213654,96.749390 80.043747,97.678429 80.041740,98.541084 
	C80.025856,105.353912 79.830276,112.166222 79.704628,118.978973 
	C79.674774,120.597748 79.700211,122.217537 79.700211,123.951408 
	C83.415787,123.642944 84.238441,121.746536 84.200279,118.828583 
	C84.098061,111.011795 84.159485,103.192528 84.201126,95.374481 
	C84.210411,93.630325 84.405159,91.887154 84.514519,90.143532 
	C85.122246,90.125534 85.729965,90.107529 86.337685,90.089531 
	C86.337685,94.956139 86.337685,99.822754 86.337685,104.689362 
	C86.337685,109.646751 86.337685,114.604149 86.337685,119.796669 
	C92.415871,118.616989 90.712975,114.355186 91.101463,110.425018 
	C91.816856,109.866318 92.387146,109.882469 92.957443,109.898628 
	C92.630638,111.493729 92.303833,113.088829 91.796684,115.564148 
	C106.848587,108.571007 110.449059,92.578430 120.893631,82.918419 
	C121.320572,83.173706 121.747520,83.428993 122.174461,83.684280 
	C121.806984,85.356041 121.590858,87.078690 121.048553,88.691673 
	C115.749168,104.453812 104.852379,115.708130 91.246666,124.423927 
	C76.040291,134.165100 81.491928,134.222443 65.972458,124.269211 
	C54.326004,116.799889 44.676163,107.216278 38.505928,94.153397 
	C37.158852,90.492264 36.046066,87.074600 34.778214,83.180695 
	C41.385178,85.116196 43.523804,90.274475 46.192513,95.440582 
	C46.475658,95.672966 46.481998,95.726723 46.481998,95.726723 
	C47.690201,97.738113 48.898399,99.749512 50.488510,102.247940 
	C51.577591,103.491005 52.284760,104.247017 52.991928,105.003036 
	C54.779926,106.948326 56.567924,108.893616 58.832073,111.265930 
	C60.663971,112.806480 62.019722,113.919998 63.375469,115.033516 
	C63.737942,114.889191 64.100410,114.744865 64.462883,114.600540 
	C64.049805,112.374184 63.636730,110.147820 63.223648,107.921455 
	C63.617798,106.855400 64.011948,105.789345 64.758095,103.771240 
	C68.206276,109.472328 62.313663,117.088608 71.118309,120.304535 
	C71.118309,114.589020 71.118309,109.255615 71.109299,103.007271 
	C71.041183,98.728958 70.982063,95.365585 70.922951,92.002213 
z"/>
<path fill="#F5F5F5" opacity="1.000000" stroke="none" 
	d="
M32.956337,60.150375 
	C32.975151,52.743759 32.993965,45.337143 32.967972,37.463535 
	C39.661564,34.237511 46.387939,31.448572 53.144402,28.734514 
	C55.763470,27.682440 58.664051,27.168987 61.070679,25.777605 
	C73.104599,18.820251 84.829773,19.958460 96.974113,25.812738 
	C104.576927,29.477741 112.725548,32.044300 120.719727,34.845573 
	C123.569962,35.844337 124.507370,37.347126 124.414818,40.292496 
	C124.212669,46.725563 124.352287,53.169369 124.352287,59.902805 
	C119.776642,58.088539 117.874115,55.315681 118.393501,50.892174 
	C118.624741,48.922798 118.305298,46.893055 118.475029,44.911201 
	C118.763603,41.541737 117.127899,39.740757 114.104378,38.705605 
	C110.647369,37.522038 107.249649,36.165298 103.181625,34.579327 
	C100.867302,33.737644 99.197533,33.200439 97.235123,32.569088 
	C97.092720,35.332161 96.982010,37.480400 96.645203,39.712730 
	C96.419113,39.796825 95.977501,39.991070 95.795700,39.816826 
	C95.389687,39.392708 95.165482,39.142834 94.982277,38.452759 
	C95.148544,31.415146 95.148544,31.415146 91.288658,30.936941 
	C90.545677,33.261238 89.818832,35.535072 89.091988,37.808903 
	C88.701614,37.665714 88.311249,37.522530 87.920876,37.379341 
	C89.333412,27.530230 88.765900,29.219660 80.368591,26.186378 
	C76.308411,24.719753 73.266930,27.319828 73.235313,31.601036 
	C73.199615,36.433350 73.282959,41.266602 73.239571,46.098770 
	C73.225098,47.711266 72.979652,49.321690 72.839798,50.933060 
	C72.277840,50.898769 71.715889,50.864479 71.153931,50.830189 
	C71.153931,43.576191 71.153931,36.322189 71.153931,29.050236 
	C59.319069,29.824907 64.345505,38.239407 63.617512,43.883228 
	C63.156227,43.880516 62.694942,43.877804 62.233654,43.875095 
	C61.724594,40.175594 61.215534,36.476097 60.627857,32.205261 
	C54.800663,34.503250 49.274776,36.682419 43.443359,38.872643 
	C42.404148,39.201797 41.670464,39.519897 40.585373,39.896774 
	C39.905396,40.972153 39.576824,41.988754 39.173084,43.417007 
	C39.154716,45.218086 39.211517,46.607510 39.187248,48.434952 
	C39.104156,51.249687 39.102135,53.626411 38.830494,56.206604 
	C36.692696,57.656841 34.824516,58.903606 32.956337,60.150375 
z"/>
<path fill="#F2F2F2" opacity="1.000000" stroke="none" 
	d="
M68.396851,85.988243 
	C67.227928,85.618553 66.456154,85.265396 65.125305,84.677139 
	C63.770691,84.098152 62.975136,83.754250 62.179581,83.410347 
	C61.221939,82.826653 60.264297,82.242958 58.840958,81.338287 
	C57.706066,80.629471 57.036877,80.241638 56.367687,79.853806 
	C55.435993,79.003845 54.504299,78.153877 53.070698,76.938065 
	C51.156128,73.834320 45.222252,73.214073 48.910965,68.066299 
	C49.833275,66.970657 50.495956,66.017120 51.434071,64.941826 
	C52.471985,64.183510 53.234467,63.546951 54.344280,62.896988 
	C55.964130,61.903416 57.164471,60.807552 58.520630,59.961449 
	C69.050461,53.391891 80.171082,51.969875 92.094681,56.468147 
	C92.785583,56.815666 93.295059,56.964958 94.042786,57.347565 
	C95.484215,58.145599 96.687393,58.710323 97.890572,59.275047 
	C102.096718,62.731297 106.302864,66.187553 110.383904,69.540993 
	C103.382103,82.755463 84.732216,89.890450 68.396851,85.988243 
M63.825977,60.402527 
	C59.329201,63.546417 54.832428,66.690308 49.140366,70.669868 
	C55.268482,75.007698 60.032291,78.379799 64.796104,81.751892 
	C65.141167,81.359230 65.486229,80.966576 65.831299,80.573914 
	C61.963566,74.214806 61.664986,67.807579 65.805656,61.017685 
	C65.376579,60.749538 64.947510,60.481388 63.825977,60.402527 
M71.620697,59.842964 
	C66.404022,64.377464 64.796402,69.317444 66.767014,74.757645 
	C68.726089,80.165993 73.127396,83.191956 78.963112,83.142647 
	C84.471619,83.096100 88.969986,80.025490 90.733810,74.847610 
	C92.501907,69.657204 91.465874,64.905602 87.461235,61.166740 
	C82.934959,56.940868 77.705933,56.711296 71.620697,59.842964 
M92.919495,78.378464 
	C92.580505,79.189156 92.241516,79.999847 91.902527,80.810532 
	C92.255714,81.145668 92.608910,81.480797 92.962097,81.815933 
	C97.663635,78.260963 102.365173,74.705994 107.997337,70.447357 
	C102.324692,66.305130 97.790192,62.993999 93.255699,59.682861 
	C92.886894,59.989407 92.518089,60.295948 92.149292,60.602489 
	C94.700943,66.205452 96.348808,71.842514 92.919495,78.378464 
z"/>
<path fill="#F7F7F6" opacity="1.000000" stroke="none" 
	d="
M106.015625,55.838860 
	C106.145050,54.352177 106.276909,53.265522 106.558228,50.947155 
	C114.121788,57.161079 121.039162,62.703560 127.713722,68.524460 
	C128.459061,69.174469 128.469269,72.143532 127.730469,72.788353 
	C121.155235,78.527191 114.334564,83.984833 107.013283,89.011856 
	C104.905510,78.226059 116.463013,77.354912 120.222771,70.210403 
	C116.657356,67.253883 112.778564,64.231392 109.153084,60.930656 
	C107.803154,59.701653 107.045685,57.821899 106.015625,55.838860 
z"/>
<path fill="#E7E7E7" opacity="1.000000" stroke="none" 
	d="
M100.984657,99.051178 
	C98.249115,94.850502 95.903641,90.548401 98.199806,85.053017 
	C98.427322,86.099380 98.849419,87.146706 98.844223,88.191902 
	C98.831024,90.851524 99.541435,92.536110 102.606636,92.988976 
	C103.867073,93.175201 105.716728,94.735367 105.828094,95.821350 
	C105.938347,96.896553 104.196312,98.161705 102.757965,99.344635 
	C101.827682,99.247551 101.406166,99.149368 100.984657,99.051178 
z"/>
<path fill="#EEEEEE" opacity="1.000000" stroke="none" 
	d="
M101.012047,43.034603 
	C102.757576,42.677471 104.503098,42.320343 106.819618,42.249401 
	C107.909866,43.590546 108.429115,44.645504 108.948364,45.700462 
	C108.640648,45.804352 108.325325,46.017143 108.026299,45.996300 
	C99.026436,45.369045 98.692078,45.693310 98.486588,55.485283 
	C97.759911,52.991440 97.408058,50.003918 97.310745,46.886864 
	C98.048615,46.182854 98.531937,45.608379 99.275055,44.906086 
	C100.027245,44.197044 100.519646,43.615822 101.012047,43.034603 
z"/>
<path fill="#DBDBDB" opacity="1.000000" stroke="none" 
	d="
M91.200958,97.518333 
	C91.017036,94.143692 91.017036,91.104126 91.017036,87.679573 
	C93.423691,93.339867 95.496162,98.214203 97.948692,103.982399 
	C95.447563,101.646950 93.416222,99.750183 91.200958,97.518333 
z"/>
<path fill="#6F6F6F" opacity="1.000000" stroke="none" 
	d="
M100.881950,42.699936 
	C100.519646,43.615822 100.027245,44.197044 99.118042,44.580311 
	C98.091263,42.797783 97.481277,41.213211 96.871292,39.628639 
	C96.982010,37.480400 97.092720,35.332161 97.235123,32.569088 
	C99.197533,33.200439 100.867302,33.737644 102.809990,34.523270 
	C102.305893,37.302887 101.528870,39.834080 100.881950,42.699936 
z"/>
<path fill="#6F6F6F" opacity="1.000000" stroke="none" 
	d="
M97.056198,47.016396 
	C97.408058,50.003918 97.759911,52.991440 98.536835,55.912201 
	C98.662956,56.756210 98.364014,57.666981 97.977814,58.926399 
	C96.687393,58.710323 95.484215,58.145599 94.216873,57.078384 
	C93.753807,55.382801 93.354904,54.189716 92.907578,52.624687 
	C92.916901,50.528366 92.974648,48.803993 93.535469,47.073677 
	C95.044426,47.050621 96.050308,47.033508 97.056198,47.016396 
z"/>
<path fill="#DBDBDB" opacity="1.000000" stroke="none" 
	d="
M93.316856,109.820129 
	C92.387146,109.882469 91.816856,109.866318 91.067383,110.001633 
	C90.479568,108.352242 90.070930,106.551399 89.662300,104.750549 
	C91.034714,104.588562 92.407135,104.426582 93.779549,104.264595 
	C93.745117,106.090271 93.710693,107.915947 93.316856,109.820129 
z"/>
<path fill="#DBDBDB" opacity="1.000000" stroke="none" 
	d="
M109.155777,45.661312 
	C108.429115,44.645504 107.909866,43.590546 107.205460,42.297638 
	C108.150223,42.293285 109.280151,42.526882 110.410072,42.760479 
	C110.061111,43.714371 109.712143,44.668266 109.155777,45.661312 
z"/>
<path fill="#757575" opacity="1.000000" stroke="none" 
	d="
M100.890533,99.332466 
	C101.406166,99.149368 101.827682,99.247551 102.415001,99.486626 
	C102.915741,100.656746 103.250671,101.685989 103.585594,102.715225 
	C103.061325,102.894135 102.537048,103.073044 102.012772,103.251945 
	C101.607323,102.039215 101.201866,100.826485 100.890533,99.332466 
z"/>
<path fill="#F8F8F8" opacity="1.000000" stroke="none" 
	d="
M49.792526,81.090935 
	C50.420307,83.587807 51.048084,86.084671 51.675865,88.581543 
	C51.140907,88.878967 50.605953,89.176392 50.070999,89.473816 
	C45.641953,85.944717 41.212910,82.415611 36.311016,78.534309 
	C35.228077,77.787247 34.617992,77.392380 34.007908,76.997505 
	C33.819946,76.734184 33.672867,76.425430 33.438061,76.214180 
	C27.133913,70.542480 27.132389,70.544174 34.285347,64.517090 
	C37.829994,61.315567 40.879406,58.543049 44.144070,55.572399 
	C46.360355,54.151287 48.361393,52.928310 51.323971,51.117661 
	C51.159508,54.740623 51.063072,56.864967 50.706882,59.097946 
	C49.943180,59.749928 49.439228,60.293270 48.622139,60.951519 
	C46.468468,62.674469 44.627937,64.282516 42.467079,66.023880 
	C40.457191,67.575317 38.767632,68.993454 36.623909,70.792778 
	C41.356747,74.493965 45.574635,77.792450 49.792526,81.090935 
z"/>
<path fill="#6C6C6C" opacity="1.000000" stroke="none" 
	d="
M50.055038,80.901398 
	C45.574635,77.792450 41.356747,74.493965 36.623909,70.792778 
	C38.767632,68.993454 40.457191,67.575317 42.804298,66.227066 
	C45.191673,66.934097 46.921509,67.571243 48.651344,68.208397 
	C45.222252,73.214073 51.156128,73.834320 52.768829,76.839996 
	C52.085098,78.309135 51.201324,79.510490 50.055038,80.901398 
z"/>
<path fill="#6C6C6C" opacity="1.000000" stroke="none" 
	d="
M43.928818,55.770531 
	C40.879406,58.543049 37.829994,61.315567 34.467888,64.240250 
	C33.794140,63.221012 33.433079,62.049599 33.014175,60.514282 
	C34.824516,58.903606 36.692696,57.656841 39.313797,56.196938 
	C41.354084,55.912712 42.641453,55.841621 43.928818,55.770531 
z"/>
<path fill="#6C6C6C" opacity="1.000000" stroke="none" 
	d="
M70.630066,92.058571 
	C70.982063,95.365585 71.041183,98.728958 71.027252,102.545471 
	C67.060036,102.227844 64.945358,100.859947 68.368484,96.844223 
	C69.422928,95.607239 69.702705,93.709900 70.630066,92.058571 
z"/>
<path fill="#6C6C6C" opacity="1.000000" stroke="none" 
	d="
M53.303711,104.850517 
	C52.284760,104.247017 51.577591,103.491005 50.743427,102.447350 
	C51.062641,100.947716 51.508850,99.735725 52.232376,98.098541 
	C53.445862,98.081131 54.382034,98.488914 55.318207,98.896690 
	C56.294399,99.554695 57.270592,100.212708 58.246780,100.870720 
	C56.703014,102.146477 55.159252,103.422241 53.303711,104.850517 
z"/>
<path fill="#6C6C6C" opacity="1.000000" stroke="none" 
	d="
M62.050938,83.764801 
	C62.975136,83.754250 63.770691,84.098152 64.802979,84.665291 
	C64.415703,87.991638 63.791691,91.094749 63.167675,94.197868 
	C62.516781,94.137184 61.865887,94.076508 61.214993,94.015823 
	C61.450760,90.716972 61.686527,87.418114 62.050938,83.764801 
z"/>
<path fill="#6C6C6C" opacity="1.000000" stroke="none" 
	d="
M62.847343,107.958893 
	C63.636730,110.147820 64.049805,112.374184 64.462883,114.600540 
	C64.100410,114.744865 63.737942,114.889191 63.375469,115.033516 
	C62.019722,113.919998 60.663971,112.806480 59.140762,111.390495 
	C60.139214,110.057465 61.305126,109.026901 62.847343,107.958893 
z"/>
<path fill="#6C6C6C" opacity="1.000000" stroke="none" 
	d="
M33.700935,77.109192 
	C34.617992,77.392380 35.228077,77.787247 35.983635,78.418015 
	C34.852146,79.448196 33.575195,80.242485 32.298244,81.036774 
	C32.663483,79.764809 33.028721,78.492851 33.700935,77.109192 
z"/>
<path fill="#6C6C6C" opacity="1.000000" stroke="none" 
	d="
M56.042809,80.001656 
	C57.036877,80.241638 57.706066,80.629471 58.585625,81.220299 
	C57.275303,82.681664 55.754616,83.940048 54.233925,85.198433 
	C53.807747,84.854614 53.381565,84.510803 52.955383,84.166985 
	C53.876232,82.827827 54.797081,81.488663 56.042809,80.001656 
z"/>
<path fill="#6C6C6C" opacity="1.000000" stroke="none" 
	d="
M46.450363,95.678024 
	C47.014317,94.130386 47.603561,92.577690 48.192810,91.024986 
	C48.656841,91.257080 49.120872,91.489174 49.584904,91.721268 
	C48.763290,92.903976 47.941677,94.086678 46.801033,95.498047 
	C46.481998,95.726723 46.475658,95.672966 46.450363,95.678024 
z"/>
<path fill="#DBDBDB" opacity="1.000000" stroke="none" 
	d="
M55.334480,98.616211 
	C54.382034,98.488914 53.445862,98.081131 52.256348,97.701996 
	C53.118923,97.932343 54.234840,98.134041 55.334480,98.616211 
z"/>
<path fill="#6C6C6C" opacity="1.000000" stroke="none" 
	d="
M55.504166,93.499298 
	C55.486649,93.504814 55.521683,93.493774 55.504166,93.499298 
z"/>
<path fill="#6F6F6F" opacity="1.000000" stroke="none" 
	d="
M44.144070,55.572395 
	C42.641453,55.841621 41.354084,55.912712 39.583416,55.993469 
	C39.102135,53.626411 39.104156,51.249687 39.479740,48.552498 
	C41.410965,49.308929 42.968628,50.385822 44.690472,51.576225 
	C45.287434,49.693588 45.724281,48.315914 46.480133,46.948334 
	C48.199444,46.639038 49.599751,46.319641 51.421642,45.964989 
	C60.891243,44.809731 56.686211,52.636200 59.371235,56.374348 
	C60.282578,53.780327 61.266663,50.841888 60.364468,48.696781 
	C59.018860,45.497387 56.804222,42.189072 52.031532,42.566269 
	C49.885754,42.174927 47.947025,42.088596 45.818504,41.741177 
	C45.002106,40.607254 44.375496,39.734421 43.748886,38.861588 
	C49.274776,36.682419 54.800663,34.503250 60.627857,32.205261 
	C61.215534,36.476097 61.724594,40.175594 62.233654,43.875095 
	C62.694942,43.877804 63.156227,43.880516 63.617512,43.883228 
	C64.345505,38.239407 59.319069,29.824907 71.153931,29.050236 
	C71.153931,36.322189 71.153931,43.576191 71.153931,50.830189 
	C71.715889,50.864479 72.277840,50.898769 72.839798,50.933060 
	C72.979652,49.321690 73.225098,47.711266 73.239571,46.098770 
	C73.282959,41.266602 73.199615,36.433350 73.235313,31.601036 
	C73.266930,27.319828 76.308411,24.719753 80.368591,26.186378 
	C88.765900,29.219660 89.333412,27.530230 87.920876,37.379341 
	C88.311249,37.522530 88.701614,37.665714 89.091988,37.808903 
	C89.818832,35.535072 90.545677,33.261238 91.288658,30.936941 
	C95.148544,31.415146 95.148544,31.415146 94.685966,38.639343 
	C93.298965,40.312897 92.185898,41.304260 91.212448,42.417690 
	C89.026802,44.917614 89.495781,51.293709 91.977577,54.218864 
	C91.947304,55.176014 91.930283,55.722965 91.913254,56.269917 
	C80.171082,51.969875 69.050461,53.391891 58.520630,59.961449 
	C57.164471,60.807552 55.964130,61.903416 54.382084,62.561703 
	C54.205845,60.904007 54.339134,59.568192 54.521839,57.737106 
	C52.968872,58.284092 51.967754,58.636703 50.966637,58.989315 
	C51.063072,56.864967 51.159508,54.740623 51.323971,51.117661 
	C48.361393,52.928310 46.360355,54.151287 44.144070,55.572395 
M79.171043,50.482861 
	C79.448647,45.738712 79.914986,40.992367 79.859940,36.252083 
	C79.847496,35.180176 78.021843,34.129326 77.030838,33.068779 
	C76.584351,33.838413 75.666939,34.675987 75.766609,35.366833 
	C76.500137,40.451164 77.436852,45.506180 79.171043,50.482861 
M86.352066,45.407417 
	C86.352066,43.193810 86.352066,40.980202 86.352066,37.312069 
	C83.169083,42.616165 84.086052,46.710636 84.655098,50.783192 
	C85.117325,50.818485 85.579552,50.853779 86.041779,50.889072 
	C86.150055,49.379749 86.258339,47.870426 86.352066,45.407417 
z"/>
<path fill="#6C6C6C" opacity="1.000000" stroke="none" 
	d="
M46.161133,46.938236 
	C45.724281,48.315914 45.287434,49.693588 44.690472,51.576225 
	C42.968628,50.385822 41.410965,49.308929 39.560810,48.114487 
	C39.211517,46.607510 39.154716,45.218086 39.426620,43.235184 
	C40.149147,41.707142 40.542965,40.772568 40.936783,39.837997 
	C41.670464,39.519897 42.404148,39.201797 43.443359,38.872643 
	C44.375496,39.734421 45.002106,40.607254 45.768700,41.998543 
	C45.833447,42.674747 45.758209,42.832485 45.510300,43.095421 
	C45.466843,43.803211 45.596058,44.405804 45.844364,45.317833 
	C46.029346,46.064255 46.095242,46.501247 46.161133,46.938236 
z"/>
<path fill="#E7E7E7" opacity="1.000000" stroke="none" 
	d="
M91.990822,53.808662 
	C89.495781,51.293709 89.026802,44.917614 91.212448,42.417690 
	C92.185898,41.304260 93.298965,40.312897 94.644966,39.079540 
	C95.165482,39.142834 95.389687,39.392708 95.668457,40.132393 
	C94.826149,42.774673 93.929276,44.927147 93.032410,47.079617 
	C92.974648,48.803993 92.916901,50.528366 92.744034,52.756847 
	C92.410156,53.436443 92.197449,53.619015 91.990822,53.808662 
z"/>
<path fill="#6C6C6C" opacity="1.000000" stroke="none" 
	d="
M93.535477,47.073677 
	C93.929276,44.927147 94.826149,42.774673 95.850266,40.306637 
	C95.977501,39.991070 96.419113,39.796825 96.645203,39.712730 
	C97.481277,41.213211 98.091263,42.797783 98.858253,44.708130 
	C98.531937,45.608379 98.048615,46.182854 97.310745,46.886864 
	C96.050308,47.033508 95.044426,47.050621 93.535477,47.073677 
z"/>
<path fill="#6F6F6F" opacity="1.000000" stroke="none" 
	d="
M40.585373,39.896774 
	C40.542965,40.772568 40.149147,41.707142 39.501793,42.823532 
	C39.576824,41.988754 39.905396,40.972153 40.585373,39.896774 
z"/>
<path fill="#727272" opacity="1.000000" stroke="none" 
	d="
M71.935577,59.609989 
	C77.705933,56.711296 82.934959,56.940868 87.461235,61.166740 
	C91.465874,64.905602 92.501907,69.657204 90.733810,74.847610 
	C88.969986,80.025490 84.471619,83.096100 78.963112,83.142647 
	C73.127396,83.191956 68.726089,80.165993 66.767014,74.757645 
	C64.796402,69.317444 66.404022,64.377464 71.935577,59.609989 
M81.098953,63.316269 
	C75.457855,62.285408 71.423492,64.827744 71.003098,69.678383 
	C70.614136,74.166321 74.218361,78.030571 78.845596,78.086655 
	C83.685562,78.145317 86.354813,74.768219 85.911217,69.147331 
	C80.480202,69.291031 79.941628,68.710548 81.098953,63.316269 
z"/>
<path fill="#707070" opacity="1.000000" stroke="none" 
	d="
M65.341423,61.346775 
	C61.664986,67.807579 61.963566,74.214806 65.831299,80.573914 
	C65.486229,80.966576 65.141167,81.359230 64.796104,81.751892 
	C60.032291,78.379799 55.268482,75.007698 49.140366,70.669868 
	C54.832428,66.690308 59.329201,63.546417 64.373650,60.594391 
	C65.061356,60.973091 65.201385,61.159935 65.341423,61.346775 
z"/>
<path fill="#707070" opacity="1.000000" stroke="none" 
	d="
M93.087112,78.018471 
	C96.348808,71.842514 94.700943,66.205452 92.149292,60.602489 
	C92.518089,60.295948 92.886894,59.989407 93.255699,59.682861 
	C97.790192,62.993999 102.324692,66.305130 107.997337,70.447357 
	C102.365173,74.705994 97.663635,78.260963 92.962097,81.815933 
	C92.608910,81.480797 92.255714,81.145668 91.902527,80.810532 
	C92.241516,79.999847 92.580505,79.189156 93.087112,78.018471 
z"/>
<path fill="#6C6C6C" opacity="1.000000" stroke="none" 
	d="
M50.706882,59.097946 
	C51.967754,58.636703 52.968872,58.284092 54.521839,57.737106 
	C54.339134,59.568192 54.205845,60.904007 54.034756,62.575108 
	C53.234467,63.546951 52.471985,64.183510 51.129318,64.755829 
	C50.011185,63.406597 49.473232,62.121605 48.935280,60.836617 
	C49.439228,60.293270 49.943180,59.749928 50.706882,59.097946 
z"/>
<path fill="#6F6F6F" opacity="1.000000" stroke="none" 
	d="
M48.622139,60.951515 
	C49.473232,62.121605 50.011185,63.406597 50.853889,64.877586 
	C50.495956,66.017120 49.833275,66.970657 48.910965,68.066299 
	C46.921509,67.571243 45.191673,66.934097 43.124622,66.093750 
	C44.627937,64.282516 46.468468,62.674469 48.622139,60.951515 
z"/>
<path fill="#6C6C6C" opacity="1.000000" stroke="none" 
	d="
M91.977577,54.218864 
	C92.197449,53.619015 92.410156,53.436443 92.792465,53.128792 
	C93.354904,54.189716 93.753807,55.382801 93.978622,56.845070 
	C93.295059,56.964958 92.785583,56.815666 92.094688,56.468147 
	C91.930283,55.722965 91.947304,55.176014 91.977577,54.218864 
z"/>
<path fill="#707070" opacity="1.000000" stroke="none" 
	d="
M64.719879,60.499748 
	C64.947510,60.481388 65.376579,60.749538 65.573540,61.182228 
	C65.201385,61.159935 65.061356,60.973091 64.719879,60.499748 
z"/>
<path fill="#E7E7E7" opacity="1.000000" stroke="none" 
	d="
M52.238579,42.871281 
	C56.804222,42.189072 59.018860,45.497387 60.364468,48.696781 
	C61.266663,50.841888 60.282578,53.780327 59.371235,56.374348 
	C56.686211,52.636200 60.891243,44.809731 51.470058,45.624649 
	C51.477451,44.503468 51.858017,43.687374 52.238579,42.871281 
z"/>
<path fill="#EEEEEE" opacity="1.000000" stroke="none" 
	d="
M78.740318,50.526646 
	C77.436852,45.506180 76.500137,40.451164 75.766609,35.366833 
	C75.666939,34.675987 76.584351,33.838413 77.030838,33.068779 
	C78.021843,34.129326 79.847496,35.180176 79.859940,36.252083 
	C79.914986,40.992367 79.448647,45.738712 78.740318,50.526646 
z"/>
<path fill="#E0E0E0" opacity="1.000000" stroke="none" 
	d="
M52.031532,42.566269 
	C51.858017,43.687374 51.477451,44.503468 51.048473,45.659901 
	C49.599751,46.319641 48.199444,46.639038 46.480137,46.948334 
	C46.095242,46.501247 46.029346,46.064255 45.847343,44.981331 
	C45.715145,43.887009 45.699055,43.438618 45.682968,42.990227 
	C45.758209,42.832485 45.833447,42.674747 45.958488,42.259636 
	C47.947025,42.088596 49.885754,42.174927 52.031532,42.566269 
z"/>
<path fill="#F5F5F5" opacity="1.000000" stroke="none" 
	d="
M86.359344,45.884262 
	C86.258339,47.870426 86.150055,49.379749 86.041779,50.889072 
	C85.579552,50.853779 85.117325,50.818485 84.655098,50.783192 
	C84.086052,46.710636 83.169083,42.616165 86.352066,37.312069 
	C86.352066,40.980202 86.352066,43.193810 86.359344,45.884262 
z"/>
<path fill="#6F6F6F" opacity="1.000000" stroke="none" 
	d="
M45.510300,43.095421 
	C45.699055,43.438618 45.715145,43.887009 45.728256,44.671898 
	C45.596058,44.405804 45.466843,43.803211 45.510300,43.095421 
z"/>
<path fill="#F9F9F9" opacity="1.000000" stroke="none" 
	d="
M81.132370,63.674442 
	C79.941628,68.710548 80.480202,69.291031 85.911217,69.147331 
	C86.354813,74.768219 83.685562,78.145317 78.845596,78.086655 
	C74.218361,78.030571 70.614136,74.166321 71.003098,69.678383 
	C71.423492,64.827744 75.457855,62.285408 81.132370,63.674442 
z"/>
</svg>